<?xml version='1.0' encoding='utf-8'?>
<svg xmlns="http://www.w3.org/2000/svg" width="2400" height="1700" viewBox="0 0 2400 1700" role="img" aria-labelledby="title desc"><title id="title">Activity Diagram — Akuisisi, Inferensi, dan Operasi Platform</title><desc id="desc">Alur live telemetry, retry persisten, episode alert, serta subproses analisis dan operasi</desc><style>
      text { font-family: "DejaVu Sans", "Liberation Sans", sans-serif; fill: #17324D; }
      .title { font-size: 30px; font-weight: 700; }
      .subtitle { font-size: 14px; fill: #5E6D79; }
      .lane-title { font-size: 18px; font-weight: 700; }
      .label { font-size: 16px; }
      .small { font-size: 15px; fill: #5E6D79; }
      .group-title { font-size: 17px; font-weight: 700; }
      .uc { font-size: 15px; }
      .actor { font-size: 15px; font-weight: 700; }
      .source { font-size: 15px; fill: #5E6D79; }
      .edge { fill: none; stroke: #17324D; stroke-width: 2; marker-end: url(#arrow-navy); }
      .edge-teal { fill: none; stroke: #0F766E; stroke-width: 2.2; marker-end: url(#arrow-teal); }
      .edge-blue { fill: none; stroke: #2563A6; stroke-width: 2.2; marker-end: url(#arrow-blue); }
      .edge-rose { fill: none; stroke: #B4535A; stroke-width: 2.2; marker-end: url(#arrow-rose); }
      .dashed { stroke-dasharray: 8 6; }
    </style><defs><marker id="arrow-navy" viewBox="0 0 10 10" refX="9" refY="5" markerWidth="7" markerHeight="7" orient="auto-start-reverse"><path d="M 0 0 L 10 5 L 0 10 z" fill="#17324D" /></marker><marker id="arrow-teal" viewBox="0 0 10 10" refX="9" refY="5" markerWidth="7" markerHeight="7" orient="auto-start-reverse"><path d="M 0 0 L 10 5 L 0 10 z" fill="#0F766E" /></marker><marker id="arrow-blue" viewBox="0 0 10 10" refX="9" refY="5" markerWidth="7" markerHeight="7" orient="auto-start-reverse"><path d="M 0 0 L 10 5 L 0 10 z" fill="#2563A6" /></marker><marker id="arrow-rose" viewBox="0 0 10 10" refX="9" refY="5" markerWidth="7" markerHeight="7" orient="auto-start-reverse"><path d="M 0 0 L 10 5 L 0 10 z" fill="#B4535A" /></marker></defs><rect x="0" y="0" width="2400" height="1700" fill="#FCFBF8" /><text x="40" y="52" class="title" text-anchor="start"><tspan x="40" dy="0.0">Activity Diagram — Akuisisi, Inferensi, dan Operasi Platform</tspan></text><text x="40" y="86" class="subtitle" text-anchor="start"><tspan x="40" dy="0.0">Alur live telemetry, retry persisten, episode alert, serta subproses analisis dan operasi</tspan></text><g id="containers"><rect x="30" y="130" width="365" height="990" rx="14" fill="#E7F3F1" stroke="#0F766E" stroke-width="2" /><rect x="425" y="130" width="365" height="990" rx="14" fill="#F0F7F5" stroke="#0F766E" stroke-width="2" /><rect x="820" y="130" width="365" height="990" rx="14" fill="#E7F3F1" stroke="#0F766E" stroke-width="2" /><rect x="1215" y="130" width="365" height="990" rx="14" fill="#F2F5F7" stroke="#17324D" stroke-width="2" /><rect x="1610" y="130" width="365" height="990" rx="14" fill="#EAF1F7" stroke="#2563A6" stroke-width="2" /><rect x="2005" y="130" width="365" height="990" rx="14" fill="#EEF4FA" stroke="#2563A6" stroke-width="2" /><rect x="30" y="1160" width="2340" height="430" rx="16" fill="#F7F5EF" stroke="#17324D" stroke-width="2" stroke-dasharray="10 7" /></g><g id="edges"><path d="M212 236 V285" class="edge-teal" /><path d="M352 325 H468" class="edge-teal" /><path d="M748 336 H805 V247 H862" class="edge-teal" /><path d="M1002 279 V300" class="edge-teal" /><path d="M1002 400 V465" class="edge-rose" /><path d="M1127 350 H1165 V646 H1142" class="edge-teal" /><path d="M1142 646 H1195 V241 H1257" class="edge-teal" /><path d="M1537 241 H1642" class="edge-blue" /><path d="M1792 257 V267" class="edge-blue" /><path d="M1722 363 V415" class="edge" /><path d="M1862 363 V390 H1862 V415" class="edge-teal" /><path d="M1862 485 V515" class="edge-blue" /><path d="M1792 591 V605" class="edge-blue" /><path d="M1727 695 V735" class="edge-rose" /><path d="M1857 695 V725" class="edge-teal" /><path d="M1820 813 V850" class="edge-teal" /><path d="M1905 813 V850" class="edge-rose" /><path d="M1537 626 H1580 V987 H1642" class="edge-blue" /><path d="M1537 796 H1590 V987 H1642" class="edge-rose" /><path d="M2047 238 H1980 V987 H1942" class="edge-blue" /><path d="M1942 987 H1990 V586 H2047" class="edge-blue" /><path d="M2187 627 V670" class="edge-blue" /><path d="M2140 760 V810" class="edge-rose" /><path d="M2235 760 V810" class="edge-rose" /><path d="M2187 760 V1050" class="edge-blue" /><path d="M1002 527 V552" class="edge-rose" /><path d="M1697 922 V930 H1777" class="edge-teal" /><path d="M1862 922 V930 H1807" class="edge-rose" /><path d="M1777 945 H1590 V626 H1537" class="edge-blue" /><path d="M1880 922 V970 H1580 V796 H1537" class="edge-rose" /><path d="M1650 922 V980 H1565 V820 H1537" class="edge-rose dashed" /><path d="M2112 872 V1079 H1967" class="edge-rose" /><path d="M2262 872 V1105 H2000 V1079 H1967" class="edge-rose" /><path d="M1937 1079 H1942" class="edge-rose" /><path d="M1642 1079 H1575 V1011 H1537" class="edge-rose" /><path d="M1537 1011 H1590 V1138 H2350 V586 H2327" class="edge-rose dashed" /><path d="M1697 485 H1618 V226 H1642" class="edge dashed"><title>insufficient window → wait for next sample → rebuild window</title></path><path d="M1625 769 H1588 V255 H1537" class="edge-rose dashed"><title>inference_retry → pending telemetry</title></path><path d="M585 1286 V1320" class="edge"><title>Alternatif · Replay</title></path><path d="M1085 1286 V1320" class="edge"><title>Alternatif · EDA</title></path><path d="M1585 1286 V1320" class="edge"><title>Alternatif · Evaluasi + CSV</title></path><path d="M2085 1286 V1320" class="edge"><title>Alternatif · Health</title></path></g><g id="nodes"><line x1="30" y1="178" x2="395" y2="178" stroke="#0F766E" stroke-width="2" /><text x="212.5" y="157" class="lane-title" text-anchor="middle"><tspan x="212.5" dy="0.0">Sensor TALPHA</tspan></text><line x1="425" y1="178" x2="790" y2="178" stroke="#0F766E" stroke-width="2" /><text x="607.5" y="157" class="lane-title" text-anchor="middle"><tspan x="607.5" dy="0.0">MQTT Broker</tspan></text><line x1="820" y1="178" x2="1185" y2="178" stroke="#0F766E" stroke-width="2" /><text x="1002.5" y="157" class="lane-title" text-anchor="middle"><tspan x="1002.5" dy="0.0">Live Subscriber</tspan></text><line x1="1215" y1="178" x2="1580" y2="178" stroke="#17324D" stroke-width="2" /><text x="1397.5" y="157" class="lane-title" text-anchor="middle"><tspan x="1397.5" dy="0.0">PostgreSQL</tspan></text><line x1="1610" y1="178" x2="1975" y2="178" stroke="#2563A6" stroke-width="2" /><text x="1792.5" y="157" class="lane-title" text-anchor="middle"><tspan x="1792.5" dy="0.0">Workers / API</tspan></text><line x1="2005" y1="178" x2="2370" y2="178" stroke="#2563A6" stroke-width="2" /><text x="2187.5" y="157" class="lane-title" text-anchor="middle"><tspan x="2187.5" dy="0.0">Browser / Pengguna</tspan></text><circle cx="212" cy="225" r="11" fill="#0F766E" /><rect x="72" y="285" width="280" height="80" rx="12" fill="#FFFFFF" stroke="#0F766E" stroke-width="2" /><text x="212.0" y="325.0" class="label" text-anchor="middle"><tspan x="212.0" dy="-9.0">Publikasikan suhu + kelembapan</tspan><tspan x="212.0" dy="18">JSON data[2] · QoS 0</tspan></text><rect x="468" y="300" width="280" height="72" rx="12" fill="#FFFFFF" stroke="#0F766E" stroke-width="2" /><text x="608.0" y="336.0" class="label" text-anchor="middle"><tspan x="608.0" dy="-9.0">Terima dan relay</tspan><tspan x="608.0" dy="18">topik terkonfigurasi</tspan></text><rect x="862" y="215" width="280" height="64" rx="12" fill="#FFFFFF" stroke="#0F766E" stroke-width="2" /><text x="1002.0" y="247.0" class="label" text-anchor="middle"><tspan x="1002.0" dy="0.0">Terima pesan MQTT</tspan></text><polygon points="1002,300.0 1127.0,350 1002,400.0 877.0,350" fill="#FFF8EA" stroke="#B7791F" stroke-width="2" /><text x="1002" y="350" class="label" text-anchor="middle"><tspan x="1002" dy="-9.0">Payload valid?</tspan><tspan x="1002" dy="18">Topik tepat · 2 nilai finite</tspan></text><rect x="862" y="465" width="280" height="62" rx="12" fill="#F8E9EA" stroke="#B4535A" stroke-width="2" /><text x="1002.0" y="496.0" class="label" text-anchor="middle"><tspan x="1002.0" dy="0.0">Tolak dan catat alasan</tspan></text><rect x="862" y="610" width="280" height="72" rx="12" fill="#FFFFFF" stroke="#0F766E" stroke-width="2" /><text x="1002.0" y="646.0" class="label" text-anchor="middle"><tspan x="1002.0" dy="-9.0">Antrekan persistensi</tspan><tspan x="1002.0" dy="18">+ pegang writer lease</tspan></text><rect x="1257" y="205" width="280" height="72" rx="12" fill="#FFFFFF" stroke="#17324D" stroke-width="2" /><text x="1397.0" y="241.0" class="label" text-anchor="middle"><tspan x="1397.0" dy="-9.0">Simpan live_telemetry</tspan><tspan x="1397.0" dy="18">status kerja: pending</tspan></text><rect x="1257" y="590" width="280" height="72" rx="12" fill="#FFFFFF" stroke="#17324D" stroke-width="2" /><text x="1397.0" y="626.0" class="label" text-anchor="middle"><tspan x="1397.0" dy="-9.0">Simpan live_inference</tspan><tspan x="1397.0" dy="18">+ 10 sumber provenans</tspan></text><rect x="1257" y="755" width="280" height="82" rx="12" fill="#F8E9EA" stroke="#B4535A" stroke-width="2" /><text x="1397.0" y="796.0" class="label" text-anchor="middle"><tspan x="1397.0" dy="-9.0">Buat / perbarui episode alert</tspan><tspan x="1397.0" dy="18">+ titik dan event</tspan></text><rect x="1257" y="975" width="280" height="72" rx="12" fill="#F8E9EA" stroke="#B4535A" stroke-width="2" /><text x="1397.0" y="1011.0" class="label" text-anchor="middle"><tspan x="1397.0" dy="-9.0">Simpan command + event</tspan><tspan x="1397.0" dy="18">acknowledge / resolve</tspan></text><rect x="1642" y="195" width="300" height="62" rx="12" fill="#FFFFFF" stroke="#2563A6" stroke-width="2" /><text x="1792.0" y="226.0" class="label" text-anchor="middle"><tspan x="1792.0" dy="-9.0">Susun window 10 × 2</tspan><tspan x="1792.0" dy="18">kronologis dan kontinu</tspan></text><polygon points="1792,267.0 1932.0,315 1792,363.0 1652.0,315" fill="#FFF8EA" stroke="#B7791F" stroke-width="2" /><text x="1792" y="315" class="label" text-anchor="middle"><tspan x="1792" dy="-9.0">Window lengkap</tspan><tspan x="1792" dy="18">dan kontinu?</tspan></text><rect x="1625" y="415" width="145" height="70" rx="12" fill="#FFF8EA" stroke="#B7791F" stroke-width="2" /><text x="1697.5" y="450.0" class="label" text-anchor="middle"><tspan x="1697.5" dy="-9.0">Belum cukup</tspan><tspan x="1697.5" dy="18">tunggu data</tspan></text><rect x="1790" y="415" width="145" height="70" rx="12" fill="#FFFFFF" stroke="#2563A6" stroke-width="2" /><text x="1862.5" y="450.0" class="label" text-anchor="middle"><tspan x="1862.5" dy="-9.0">Min–max</tspan><tspan x="1862.5" dy="18">scaling</tspan></text><rect x="1642" y="515" width="300" height="76" rx="12" fill="#FFFFFF" stroke="#2563A6" stroke-width="2" /><text x="1792.0" y="553.0" class="label" text-anchor="middle"><tspan x="1792.0" dy="-9.0">GPU inference model terpilih</tspan><tspan x="1792.0" dy="18">eval · no_grad · MSE</tspan></text><polygon points="1792,605.0 1917.0,650 1792,695.0 1667.0,650" fill="#FFF8EA" stroke="#B7791F" stroke-width="2" /><text x="1792" y="650" class="label" text-anchor="middle"><tspan x="1792" dy="0.0">Inferensi berhasil?</tspan></text><rect x="1625" y="735" width="145" height="68" rx="12" fill="#F8E9EA" stroke="#B4535A" stroke-width="2" /><text x="1697.5" y="769.0" class="label" text-anchor="middle"><tspan x="1697.5" dy="-9.0">Pending tetap</tspan><tspan x="1697.5" dy="18">inference_retry</tspan></text><rect x="1790" y="725" width="145" height="88" rx="12" fill="#FFF8EA" stroke="#B7791F" stroke-width="2" /><text x="1862.5" y="769.0" class="label" text-anchor="middle"><tspan x="1862.5" dy="-9.0">score &gt; threshold</tspan><tspan x="1862.5" dy="18">P99.5 validasi</tspan></text><rect x="1625" y="850" width="145" height="72" rx="12" fill="#E7F3F1" stroke="#0F766E" stroke-width="2" /><text x="1697.5" y="886.0" class="label" text-anchor="middle"><tspan x="1697.5" dy="-9.0">Normal</tspan><tspan x="1697.5" dy="18">3 normal: tutup</tspan></text><rect x="1790" y="850" width="145" height="72" rx="12" fill="#F8E9EA" stroke="#B4535A" stroke-width="2" /><text x="1862.5" y="886.0" class="label" text-anchor="middle"><tspan x="1862.5" dy="-9.0">Anomali</tspan><tspan x="1862.5" dy="18">buka / lanjut</tspan></text><rect x="1642" y="985" width="300" height="64" rx="12" fill="#FFFFFF" stroke="#2563A6" stroke-width="2" /><text x="1792.0" y="1017" class="label" text-anchor="middle"><tspan x="1792.0" dy="-9.0">API baca telemetry, inferensi,</tspan><tspan x="1792.0" dy="18">provenans, alert, dan bin</tspan></text><rect x="1642" y="1050" width="300" height="58" rx="12" fill="#F8E9EA" stroke="#B4535A" stroke-width="2" /><text x="1792.0" y="1079" class="label" text-anchor="middle"><tspan x="1792.0" dy="0.0">Validasi transisi lifecycle</tspan></text><rect x="2047" y="205" width="280" height="65" rx="12" fill="#FFFFFF" stroke="#2563A6" stroke-width="2" /><text x="2187.0" y="237.5" class="label" text-anchor="middle"><tspan x="2187.0" dy="-9.0">Polling API</tspan><tspan x="2187.0" dy="18">setiap 3 detik</tspan></text><rect x="2047" y="545" width="280" height="82" rx="12" fill="#FFFFFF" stroke="#2563A6" stroke-width="2" /><text x="2187.0" y="586.0" class="label" text-anchor="middle"><tspan x="2187.0" dy="-9.0">Tampilkan overview, riwayat,</tspan><tspan x="2187.0" dy="18">provenans, bin, dan alert</tspan></text><polygon points="2187,670.0 2307.0,715 2187,760.0 2067.0,715" fill="#FFF8EA" stroke="#B7791F" stroke-width="2" /><text x="2187" y="715" class="label" text-anchor="middle"><tspan x="2187" dy="0.0">Tindakan alert?</tspan></text><rect x="2047" y="810" width="130" height="62" rx="12" fill="#F8E9EA" stroke="#B4535A" stroke-width="2" /><text x="2112.0" y="841.0" class="label" text-anchor="middle"><tspan x="2112.0" dy="0.0">Acknowledge</tspan></text><rect x="2197" y="810" width="130" height="62" rx="12" fill="#F8E9EA" stroke="#B4535A" stroke-width="2" /><text x="2262.0" y="841.0" class="label" text-anchor="middle"><tspan x="2262.0" dy="-9.0">Resolve setelah</tspan><tspan x="2262.0" dy="18">episode tertutup</tspan></text><circle cx="2187" cy="1065" r="14" fill="none" stroke="#2563A6" stroke-width="3" /><circle cx="2187" cy="1065" r="7" fill="#2563A6" /><text x="2187" y="1027" class="small" text-anchor="middle"><tspan x="2187" dy="0.0">Pemantauan berlanjut</tspan></text><rect x="1005" y="422" width="47" height="22" rx="5" fill="#FCFBF8" opacity="0.96" /><text x="1023" y="436" class="small" text-anchor="middle" fill="#B4535A"><tspan x="1023" dy="0.0">tidak</tspan></text><rect x="1132" y="328" width="36" height="22" rx="5" fill="#FCFBF8" opacity="0.96" /><text x="1150" y="342" class="small" text-anchor="middle" fill="#0F766E"><tspan x="1150" dy="0.0">ya</tspan></text><rect x="1682" y="378" width="47" height="22" rx="5" fill="#FCFBF8" opacity="0.96" /><text x="1700" y="392" class="small" text-anchor="middle" fill="#B7791F"><tspan x="1700" dy="0.0">tidak</tspan></text><rect x="1862" y="377" width="36" height="22" rx="5" fill="#FCFBF8" opacity="0.96" /><text x="1880" y="391" class="small" text-anchor="middle" fill="#0F766E"><tspan x="1880" dy="0.0">ya</tspan></text><rect x="1690" y="704" width="47" height="22" rx="5" fill="#FCFBF8" opacity="0.96" /><text x="1708" y="718" class="small" text-anchor="middle" fill="#B4535A"><tspan x="1708" dy="0.0">tidak</tspan></text><rect x="1862" y="700" width="68" height="22" rx="5" fill="#FCFBF8" opacity="0.96" /><text x="1880" y="714" class="small" text-anchor="middle" fill="#0F766E"><tspan x="1880" dy="0.0">ya</tspan></text><rect x="1780" y="821" width="36" height="22" rx="5" fill="#FCFBF8" opacity="0.96" /><text x="1798" y="835" class="small" text-anchor="middle" fill="#0F766E"><tspan x="1798" dy="0.0">≤</tspan></text><rect x="1912" y="821" width="36" height="22" rx="5" fill="#FCFBF8" opacity="0.96" /><text x="1930" y="835" class="small" text-anchor="middle" fill="#B4535A"><tspan x="1930" dy="0.0">&gt;</tspan></text><rect x="1554" y="338" width="131" height="22" rx="5" fill="#FCFBF8" opacity="0.96" /><text x="1572" y="352" class="small" text-anchor="middle" fill="#B7791F"><tspan x="1572" dy="0.0">sampel berikutnya</tspan></text><rect x="1570" y="678" width="82" height="22" rx="5" fill="#FCFBF8" opacity="0.96" /><text x="1588" y="692" class="small" text-anchor="middle" fill="#B4535A"><tspan x="1588" dy="0.0">coba ulang</tspan></text><rect x="2194" y="928" width="54" height="22" rx="5" fill="#FCFBF8" opacity="0.96" /><text x="2212" y="942" class="small" text-anchor="middle" fill="#2563A6"><tspan x="2212" dy="0.0">pantau</tspan></text><text x="55" y="1195" class="group-title" text-anchor="start"><tspan x="55" dy="0.0">SUBPROSES SEKUNDER</tspan></text><text x="55" y="1222" class="small" text-anchor="start"><tspan x="55" dy="0.0">Dipicu melalui API; antrean, status, dan hasil persisten di PostgreSQL</tspan></text><rect x="360" y="1320" width="450" height="260" rx="12" fill="#FFFFFF" stroke="#0F766E" stroke-width="2" /><text x="380" y="1350" class="group-title" text-anchor="start"><tspan x="380" dy="0.0">REPLAY / SIMULASI</tspan></text><text x="585" y="1458" class="label" text-anchor="middle"><tspan x="585" dy="-24.0">API submit → queue → replay worker</tspan><tspan x="585" dy="24">512 baris/chunk · maks. 3 percobaan</tspan><tspan x="585" dy="24">staging → publikasi atomik → bin 51 titik</tspan></text><rect x="860" y="1320" width="450" height="260" rx="12" fill="#FFFFFF" stroke="#B7791F" stroke-width="2" /><text x="880" y="1350" class="group-title" text-anchor="start"><tspan x="880" dy="0.0">EDA</tspan></text><text x="1085" y="1458" class="label" text-anchor="middle"><tspan x="1085" dy="-24.0">Request → job + lease DB → EDA worker</tspan><tspan x="1085" dy="24">section hasil → polling /eda</tspan><tspan x="1085" dy="24">lease 900 dtk · maks. 3 percobaan</tspan></text><rect x="1360" y="1320" width="450" height="260" rx="12" fill="#FFFFFF" stroke="#2563A6" stroke-width="2" /><text x="1380" y="1350" class="group-title" text-anchor="start"><tspan x="1380" dy="0.0">EVALUASI &amp; EKSPOR</tspan></text><text x="1585" y="1458" class="label" text-anchor="middle"><tspan x="1585" dy="-24.0">Pilih model → metrik + injection events</tspan><tspan x="1585" dy="24">registry / offline evaluation</tspan><tspan x="1585" dy="24">BoundedDataDialog → CSV baris termuat</tspan></text><rect x="1860" y="1320" width="450" height="260" rx="12" fill="#FFFFFF" stroke="#B4535A" stroke-width="2" /><text x="1880" y="1350" class="group-title" text-anchor="start"><tspan x="1880" dy="0.0">KESEHATAN SISTEM</tspan></text><text x="2085" y="1458" class="label" text-anchor="middle"><tspan x="2085" dy="-24.0">/health · /ready · /api/system/status</tspan><tspan x="2085" dy="24">freshness ≤600 dtk · backlog ≤100</tspan><tspan x="2085" dy="24">data stale dipertahankan + Retry</tspan></text><text x="40" y="1658" class="source" text-anchor="start"><tspan x="40" dy="0.0">Sumber: implementasi platform dan skema PostgreSQL, Agustus 2026</tspan></text><circle cx="1002" cy="568" r="14" fill="none" stroke="#B4535A" stroke-width="3" /><circle cx="1002" cy="568" r="7" fill="#B4535A" /><text x="1002" y="595" class="small" text-anchor="middle">pesan diabaikan</text><polygon points="1792,930 1807,945 1792,960 1777,945" fill="#FCFBF8" stroke="#17324D" stroke-width="2" /><text x="1900" y="960" class="small" text-anchor="end">merge hasil</text><polygon points="1952,1064 1967,1079 1952,1094 1937,1079" fill="#FCFBF8" stroke="#B4535A" stroke-width="2" /><text x="1952" y="1040" class="small" text-anchor="middle">merge aksi</text><text x="2085" y="900" class="small" text-anchor="middle">acknowledge</text><text x="2265" y="900" class="small" text-anchor="middle">resolve</text><text x="1900" y="1132" class="small" text-anchor="middle">event tersimpan → kembali ke dashboard</text><text x="1710" y="505" class="small" text-anchor="middle">sampel berikutnya → susun ulang window</text><text x="1670" y="708" class="small" text-anchor="middle">coba ulang</text><text x="60" y="1275" class="group-title" text-anchor="start">Pilih satu alternatif operasi:</text><circle cx="585" cy="1278" r="8" fill="#17324D" /><text x="585" y="1252" class="small" text-anchor="middle">Alternatif · Replay</text><circle cx="1085" cy="1278" r="8" fill="#17324D" /><text x="1085" y="1252" class="small" text-anchor="middle">Alternatif · EDA</text><circle cx="1585" cy="1278" r="8" fill="#17324D" /><text x="1585" y="1252" class="small" text-anchor="middle">Alternatif · Evaluasi + CSV</text><circle cx="2085" cy="1278" r="8" fill="#17324D" /><text x="2085" y="1252" class="small" text-anchor="middle">Alternatif · Health</text></g></svg>