<?xml version='1.0' encoding='utf-8'?>
<svg xmlns="http://www.w3.org/2000/svg" width="2600" height="1800" viewBox="0 0 2600 1800" role="img" aria-labelledby="title desc"><title id="title">Use Case Diagram — Platform Deteksi Anomali</title><desc id="desc">Aktor eksternal, kapabilitas platform, dan relasi UML include/extend yang terverifikasi.</desc><style>
text{font-family:"DejaVu Sans","Liberation Sans",sans-serif;fill:#17324D}.title{font-size:32px;font-weight:700}.subtitle{font-size:16px;fill:#5E6D79}.boundary{font-size:19px;font-weight:700}.group{font-size:17px;font-weight:700}.label{font-size:16px}.actor{font-size:16px;font-weight:700}.stereo{font-size:14px;font-weight:700;fill:#5E6D79}.guard{font-size:13px;fill:#B4535A}.source{font-size:14px;fill:#5E6D79}.assoc{fill:none;stroke:#7C8A98;stroke-width:1.9}.uml{fill:none;stroke:#17324D;stroke-width:1.8;stroke-dasharray:8 6;marker-end:url(#open-arrow)}
</style><defs><marker id="open-arrow" viewBox="0 0 10 10" refX="9" refY="5" markerWidth="8" markerHeight="8" orient="auto"><path d="M 0 0 L 10 5 L 0 10" fill="none" stroke="#17324D" stroke-width="1.4" /></marker></defs><rect x="0" y="0" width="2600" height="1800" fill="#FCFBF8" /><text x="40" y="50" class="title" text-anchor="start"><tspan x="40" dy="0.0">Use Case Diagram — Platform Deteksi Anomali</tspan></text><text x="40" y="84" class="subtitle" text-anchor="start"><tspan x="40" dy="0.0">Relasi aktor dan kapabilitas implementatif · include wajib · extend bersyarat</tspan></text><g id="containers"><rect x="270" y="120" width="2060" height="1570" rx="18" fill="#F7F8F7" stroke="#17324D" stroke-width="3" /><text x="295" y="155" class="boundary" text-anchor="start"><tspan x="295" dy="0.0">Platform Deteksi Anomali</tspan></text><rect x="310" y="180" width="1980" height="500" rx="14" fill="#E7F3F1" fill-opacity="0.62" stroke="#0F766E" stroke-width="2" /><text x="330" y="208" class="group" text-anchor="start"><tspan x="330" dy="0.0">MONITORING LIVE &amp; ALERT</tspan></text><rect x="310" y="710" width="1980" height="430" rx="14" fill="#F9F0DD" fill-opacity="0.62" stroke="#B7791F" stroke-width="2" /><text x="330" y="738" class="group" text-anchor="start"><tspan x="330" dy="0.0">ANALISIS &amp; DATA</tspan></text><rect x="310" y="1170" width="1980" height="450" rx="14" fill="#EAF1F7" fill-opacity="0.62" stroke="#2563A6" stroke-width="2" /><text x="330" y="1198" class="group" text-anchor="start"><tspan x="330" dy="0.0">REPLAY &amp; MODEL LIVE</tspan></text></g><g id="actor-associations"><path d="M170 900 H220 V210 H1180 V227" class="assoc"><title>Operator — Monitor live</title></path><path d="M178 920 H230 V195 H2050 V227" class="assoc"><title>Operator — Investigasi alert</title></path><path d="M186 940 H240 V760 H885 V772" class="assoc"><title>Operator — Pilih model simulasi</title></path><path d="M192 960 H250 V745 H1240 V772" class="assoc"><title>Operator — Lihat metrik simulasi</title></path><path d="M188 980 H255 V1120 H650 V1101" class="assoc"><title>Operator — Bounded table</title></path><path d="M180 1000 H245 V1205 H600 V1227" class="assoc"><title>Operator — Jalankan replay</title></path><path d="M172 1020 H235 V1190 H1110 V1227" class="assoc"><title>Operator — Post-inference bins</title></path><path d="M2418 820 H2340 V750 H520 V772" class="assoc"><title>Researcher — Registry/evaluasi</title></path><path d="M2425 850 H2325 V735 H1650 V767" class="assoc"><title>Researcher — EDA</title></path><path d="M2430 880 H2350 V1200 H600 V1227" class="assoc"><title>Researcher — Replay</title></path><path d="M2422 910 H2370 V1215 H1710 V1227" class="assoc"><title>Administrator — Bootstrap model</title></path><path d="M175 325 C250 325, 300 275, 360 275" class="assoc"><title>Sensor — Publikasikan telemetri</title></path><path d="M175 550 C300 550, 420 275, 680 275" class="assoc"><title>MQTT — Relay telemetri</title></path></g><g id="uml-relations"><path d="M1120 306 V335 H970 V367" class="uml"><title>include: monitor → overview/latest/history</title></path><path d="M1180 313 V350 H1320 V367" class="uml"><title>include: monitor → inference/provenance</title></path><path d="M1240 306 V325 H1600 V367" class="uml"><title>include: monitor → health</title></path><path d="M1985 306 V340 H1880 V367" class="uml"><title>include: investigate → event/context</title></path><path d="M540 1308 V1340 H470 V1380" class="uml"><title>include: replay → submit</title></path><path d="M660 1308 V1355 H780 V1380" class="uml"><title>include: replay → poll</title></path><path d="M1600 848 V885 H1500 V924" class="uml"><title>include: EDA → select/request</title></path><path d="M1700 848 V900 H1830 V924" class="uml"><title>include: EDA → view</title></path><path d="M1650 1308 V1340 H1540 V1379" class="uml"><title>include: bootstrap → verify/register</title></path><path d="M1770 1308 V1355 H1900 V1379" class="uml"><title>include: bootstrap → activate</title></path><path d="M1800 520 H1650 V245 H1890 V270" class="uml"><title>extend: acknowledge → investigate</title></path><path d="M2140 520 H2290 V245 H2210 V270" class="uml"><title>extend: resolve → investigate</title></path><path d="M890 1060 H810" class="uml"><title>extend: CSV → bounded table</title></path></g><g id="actors-and-use-cases"><circle cx="130" cy="282" r="18" fill="none" stroke="#0F766E" stroke-width="3" /><line x1="130" y1="300" x2="130" y2="354" stroke="#0F766E" stroke-width="3" /><line x1="102" y1="325" x2="158" y2="325" stroke="#0F766E" stroke-width="3" /><line x1="130" y1="354" x2="105" y2="390" stroke="#0F766E" stroke-width="3" /><line x1="130" y1="354" x2="155" y2="390" stroke="#0F766E" stroke-width="3" /><text x="130" y="424" class="actor" text-anchor="middle"><tspan x="130" dy="0.0">Sensor TALPHA</tspan></text><circle cx="130" cy="507" r="18" fill="none" stroke="#0F766E" stroke-width="3" /><line x1="130" y1="525" x2="130" y2="579" stroke="#0F766E" stroke-width="3" /><line x1="102" y1="550" x2="158" y2="550" stroke="#0F766E" stroke-width="3" /><line x1="130" y1="579" x2="105" y2="615" stroke="#0F766E" stroke-width="3" /><line x1="130" y1="579" x2="155" y2="615" stroke="#0F766E" stroke-width="3" /><text x="130" y="649" class="actor" text-anchor="middle"><tspan x="130" dy="-10.0">MQTT Broker</tspan><tspan x="130" dy="20">(sistem eksternal)</tspan></text><circle cx="130" cy="912" r="18" fill="none" stroke="#2563A6" stroke-width="3" /><line x1="130" y1="930" x2="130" y2="984" stroke="#2563A6" stroke-width="3" /><line x1="102" y1="955" x2="158" y2="955" stroke="#2563A6" stroke-width="3" /><line x1="130" y1="984" x2="105" y2="1020" stroke="#2563A6" stroke-width="3" /><line x1="130" y1="984" x2="155" y2="1020" stroke="#2563A6" stroke-width="3" /><text x="130" y="1054" class="actor" text-anchor="middle"><tspan x="130" dy="-10.0">Pengguna /</tspan><tspan x="130" dy="20">Operator</tspan></text><circle cx="2470" cy="832" r="18" fill="none" stroke="#B7791F" stroke-width="3" /><line x1="2470" y1="850" x2="2470" y2="904" stroke="#B7791F" stroke-width="3" /><line x1="2442" y1="875" x2="2498" y2="875" stroke="#B7791F" stroke-width="3" /><line x1="2470" y1="904" x2="2445" y2="940" stroke="#B7791F" stroke-width="3" /><line x1="2470" y1="904" x2="2495" y2="940" stroke="#B7791F" stroke-width="3" /><text x="2470" y="974" class="actor" text-anchor="middle"><tspan x="2470" dy="-10.0">Administrator /</tspan><tspan x="2470" dy="20">Peneliti</tspan></text><ellipse cx="500" cy="275" rx="140.0" ry="39.0" fill="#FFFFFF" stroke="#0F766E" stroke-width="2" /><text x="500" y="275" class="label" text-anchor="middle"><tspan x="500" dy="0.0">Publikasikan telemetri</tspan></text><ellipse cx="820" cy="275" rx="140.0" ry="39.0" fill="#FFFFFF" stroke="#0F766E" stroke-width="2" /><text x="820" y="275" class="label" text-anchor="middle"><tspan x="820" dy="0.0">Relay topik telemetri</tspan></text><ellipse cx="1180" cy="270" rx="150.0" ry="43.0" fill="#FFFFFF" stroke="#0F766E" stroke-width="2" /><text x="1180" y="270" class="label" text-anchor="middle"><tspan x="1180" dy="0.0">Monitor live</tspan></text><ellipse cx="970" cy="410" rx="150.0" ry="43.0" fill="#FFFFFF" stroke="#2563A6" stroke-width="2" /><text x="970" y="410" class="label" text-anchor="middle"><tspan x="970" dy="-10.0">Lihat overview, latest</tspan><tspan x="970" dy="20">&amp; history</tspan></text><ellipse cx="1320" cy="410" rx="150.0" ry="43.0" fill="#FFFFFF" stroke="#0F766E" stroke-width="2" /><text x="1320" y="410" class="label" text-anchor="middle"><tspan x="1320" dy="-10.0">Lihat inferensi</tspan><tspan x="1320" dy="20">&amp; provenans</tspan></text><ellipse cx="1600" cy="410" rx="120" ry="43.0" fill="#FFFFFF" stroke="#2563A6" stroke-width="2" /><text x="1600" y="410" class="label" text-anchor="middle"><tspan x="1600" dy="0.0">Monitor system health</tspan></text><ellipse cx="2050" cy="270" rx="160.0" ry="43.0" fill="#FFF8F8" stroke="#B4535A" stroke-width="2" /><text x="2050" y="270" class="label" text-anchor="middle"><tspan x="2050" dy="0.0">Investigasi alert</tspan></text><ellipse cx="1880" cy="410" rx="160.0" ry="43.0" fill="#FFF8F8" stroke="#B4535A" stroke-width="2" /><text x="1880" y="410" class="label" text-anchor="middle"><tspan x="1880" dy="0.0">Lihat event &amp; konteks</tspan></text><ellipse cx="1800" cy="560" rx="140.0" ry="40.0" fill="#FFF8F8" stroke="#B4535A" stroke-width="2" /><text x="1800" y="560" class="label" text-anchor="middle"><tspan x="1800" dy="0.0">Acknowledge alert</tspan></text><ellipse cx="2140" cy="560" rx="140.0" ry="40.0" fill="#FFF8F8" stroke="#B4535A" stroke-width="2" /><text x="2140" y="560" class="label" text-anchor="middle"><tspan x="2140" dy="0.0">Resolve alert</tspan></text><ellipse cx="520" cy="815" rx="155.0" ry="43.0" fill="#FFFFFF" stroke="#B7791F" stroke-width="2" /><text x="520" y="815" class="label" text-anchor="middle"><tspan x="520" dy="-10.0">Inspeksi registry model</tspan><tspan x="520" dy="20">&amp; evaluasi</tspan></text><ellipse cx="885" cy="815" rx="150.0" ry="43.0" fill="#FFFFFF" stroke="#B7791F" stroke-width="2" /><text x="885" y="815" class="label" text-anchor="middle"><tspan x="885" dy="0.0">Pilih model simulasi</tspan></text><ellipse cx="1240" cy="815" rx="160.0" ry="43.0" fill="#FFFFFF" stroke="#B7791F" stroke-width="2" /><text x="1240" y="815" class="label" text-anchor="middle"><tspan x="1240" dy="-10.0">Lihat metrik simulasi</tspan><tspan x="1240" dy="20">&amp; injection events</tspan></text><ellipse cx="1650" cy="810" rx="150.0" ry="43.0" fill="#FFFFFF" stroke="#B7791F" stroke-width="2" /><text x="1650" y="810" class="label" text-anchor="middle"><tspan x="1650" dy="0.0">Eksplorasi EDA</tspan></text><ellipse cx="1500" cy="965" rx="140.0" ry="41.0" fill="#FFFFFF" stroke="#B7791F" stroke-width="2" /><text x="1500" y="965" class="label" text-anchor="middle"><tspan x="1500" dy="0.0">Pilih periode / request</tspan></text><ellipse cx="1830" cy="965" rx="140.0" ry="41.0" fill="#FFFFFF" stroke="#B7791F" stroke-width="2" /><text x="1830" y="965" class="label" text-anchor="middle"><tspan x="1830" dy="0.0">Lihat hasil /eda</tspan></text><ellipse cx="650" cy="1060" rx="160.0" ry="41.0" fill="#FFFFFF" stroke="#2563A6" stroke-width="2" /><text x="650" y="1060" class="label" text-anchor="middle"><tspan x="650" dy="0.0">Lihat bounded table</tspan></text><ellipse cx="1040" cy="1060" rx="150.0" ry="41.0" fill="#FFFFFF" stroke="#2563A6" stroke-width="2" /><text x="1040" y="1060" class="label" text-anchor="middle"><tspan x="1040" dy="0.0">Ekspor CSV</tspan></text><ellipse cx="600" cy="1270" rx="150.0" ry="43.0" fill="#FFFFFF" stroke="#2563A6" stroke-width="2" /><text x="600" y="1270" class="label" text-anchor="middle"><tspan x="600" dy="0.0">Jalankan replay</tspan></text><ellipse cx="470" cy="1420" rx="135.0" ry="40.0" fill="#FFFFFF" stroke="#2563A6" stroke-width="2" /><text x="470" y="1420" class="label" text-anchor="middle"><tspan x="470" dy="0.0">Submit replay job</tspan></text><ellipse cx="780" cy="1420" rx="135.0" ry="40.0" fill="#FFFFFF" stroke="#2563A6" stroke-width="2" /><text x="780" y="1420" class="label" text-anchor="middle"><tspan x="780" dy="0.0">Poll status replay</tspan></text><ellipse cx="1110" cy="1270" rx="160.0" ry="43.0" fill="#FFFFFF" stroke="#0F766E" stroke-width="2" /><text x="1110" y="1270" class="label" text-anchor="middle"><tspan x="1110" dy="-10.0">Lihat post-inference bins</tspan><tspan x="1110" dy="20">(51 skor)</tspan></text><ellipse cx="1710" cy="1270" rx="165.0" ry="43.0" fill="#FFFFFF" stroke="#0F766E" stroke-width="2" /><text x="1710" y="1270" class="label" text-anchor="middle"><tspan x="1710" dy="0.0">Bootstrap model live</tspan></text><ellipse cx="1540" cy="1420" rx="155.0" ry="41.0" fill="#FFFFFF" stroke="#0F766E" stroke-width="2" /><text x="1540" y="1420" class="label" text-anchor="middle"><tspan x="1540" dy="-10.0">Verifikasi &amp; registrasi</tspan><tspan x="1540" dy="20">bundle</tspan></text><ellipse cx="1900" cy="1420" rx="140.0" ry="41.0" fill="#FFFFFF" stroke="#0F766E" stroke-width="2" /><text x="1900" y="1420" class="label" text-anchor="middle"><tspan x="1900" dy="0.0">Aktivasi model live</tspan></text></g><g id="notes"><text x="300" y="1732" class="source" text-anchor="start"><tspan x="300" dy="0.0">Asosiasi aktor: garis abu-abu individual · «include»: wajib · «extend»: bersyarat</tspan></text><text x="300" y="1762" class="source" text-anchor="start"><tspan x="300" dy="0.0">Sumber: implementasi platform dan skema PostgreSQL, Agustus 2026</tspan></text><text x="1045" y="333" class="stereo" text-anchor="middle">«include»</text><text x="1250" y="348" class="stereo" text-anchor="middle">«include»</text><text x="1420" y="323" class="stereo" text-anchor="middle">«include»</text><text x="1930" y="338" class="stereo" text-anchor="middle">«include»</text><text x="505" y="1338" class="stereo" text-anchor="middle">«include»</text><text x="720" y="1353" class="stereo" text-anchor="middle">«include»</text><text x="1550" y="883" class="stereo" text-anchor="middle">«include»</text><text x="1765" y="898" class="stereo" text-anchor="middle">«include»</text><text x="1595" y="1338" class="stereo" text-anchor="middle">«include»</text><text x="1835" y="1353" class="stereo" text-anchor="middle">«include»</text><text x="1710" y="263" class="stereo" text-anchor="middle">«extend»</text><text x="1710" y="285" class="guard" text-anchor="middle">[detected]</text><text x="2260" y="263" class="stereo" text-anchor="middle">«extend»</text><text x="2260" y="285" class="guard" text-anchor="middle">[acknowledged]</text><text x="850" y="1038" class="stereo" text-anchor="middle">«extend»</text><text x="850" y="1087" class="guard" text-anchor="middle">[rows &gt; 0]</text></g></svg>